<svg width="512" height="512" viewBox="0 0 512 512" xmlns="http://www.w3.org/2000/svg">

  <defs>
    <!-- Rainbow vertical gradient background -->
    <linearGradient id="rainbowBg" x1="0" y1="0" x2="0" y2="1">
      <stop offset="0%" stop-color="#ff3b30"/>
      <stop offset="16%" stop-color="#ff9500"/>
      <stop offset="33%" stop-color="#ffcc00"/>
      <stop offset="50%" stop-color="#34c759"/>
      <stop offset="67%" stop-color="#0fb5ff"/>
      <stop offset="84%" stop-color="#5856d6"/>
      <stop offset="100%" stop-color="#af52de"/>
    </linearGradient>

    <!-- Gem fills -->
    <radialGradient id="blueGrad" cx="35%" cy="30%" r="70%">
      <stop offset="0%" stop-color="#b7eaff"/>
      <stop offset="60%" stop-color="#4abcf6"/>
      <stop offset="100%" stop-color="#1a86c9"/>
    </radialGradient>
    <radialGradient id="pinkGrad" cx="35%" cy="30%" r="70%">
      <stop offset="0%" stop-color="#ffa3d2"/>
      <stop offset="60%" stop-color="#ff5aa3"/>
      <stop offset="100%" stop-color="#e13d88"/>
    </radialGradient>

    <!-- Glow -->
    <filter id="softGlow" x="-40%" y="-40%" width="180%" height="180%">
      <feGaussianBlur in="SourceGraphic" stdDeviation="3" result="blur"/>
      <feMerge>
        <feMergeNode in="blur"/>
        <feMergeNode in="SourceGraphic"/>
      </feMerge>
    </filter>

    <!-- Drop shadow -->
    <filter id="dropShadow" x="-50%" y="-50%" width="200%" height="200%">
      <feOffset dx="0" dy="6" in="SourceAlpha" result="off"/>
      <feGaussianBlur in="off" stdDeviation="8" result="blur"/>
      <feColorMatrix in="blur" type="matrix"
        values="0 0 0 0 0
                0 0 0 0 0
                0 0 0 0 0
                0 0 0 0.35 0" result="shadow"/>
      <feMerge>
        <feMergeNode in="shadow"/>
        <feMergeNode in="SourceGraphic"/>
      </feMerge>
    </filter>
  </defs>

<rect x="24" y="24" width="464" height="464" rx="96" fill="url(#rainbowBg)"/>
<path d="M 70 160 L 70 352 M 70 160 L 108 160 M 70 352 L 108 352" fill="none" stroke="white" stroke-width="12" stroke-linecap="round" stroke-linejoin="round" stroke-dasharray="16 16" opacity="0.95" filter="url(#softGlow)"/>
<path d="M 442 160 L 442 352 M 404 160 L 442 160 M 404 352 L 442 352" fill="none" stroke="white" stroke-width="12" stroke-linecap="round" stroke-linejoin="round" stroke-dasharray="16 16" opacity="0.95" filter="url(#softGlow)"/>
<polygon points="250.0,150.0 360.0,260.0 250.0,370.0 140.0,260.0" fill="url(#blueGrad)" stroke="#0f2437" stroke-opacity="0.6" stroke-width="6" filter="url(#dropShadow)"/>
<path d="M 305.0,232.0 C 215.0,169.0 197.0,268.0 305.0,362.5 C 413.0,268.0 395.0,169.0 305.0,232.0 Z" fill="url(#pinkGrad)" stroke="#3b1430" stroke-opacity="0.6" stroke-width="6" filter="url(#dropShadow)"/>
<circle cx="215" cy="220" r="16" fill="white" opacity="0.25"/>
<circle cx="345" cy="220" r="14" fill="white" opacity="0.25"/>
</svg>